<svg xmlns="http://www.w3.org/2000/svg" xml:space="preserve" fill-rule="evenodd" stroke-linejoin="round" stroke-miterlimit="2" clip-rule="evenodd" viewBox="0 0 139 139">
  <path d="M78.106 113.2q-6.348 1.388-13.868 1.388H30.893q-1.884 0-1.883-1.994V26.405q0-1.994 1.883-1.994h33.345q21.825 0 33.789 11.577T109.99 69.5q0 7.505-1.43 13.813c-3.924-4.593-9.758-7.507-16.267-7.507-2.215 0-4.35.337-6.36.962q.682-3.301.682-7.268 0-12.075-6.314-18.002-6.315-5.928-18.28-5.927H51.61v47.857h10.414q5.273 0 9.45-1.151a21.4 21.4 0 0 0-.57 4.92c0 6.365 2.785 12.084 7.203 16.004"/>
  <circle cx="92.294" cy="97.197" r="13.391"/>
  <style>path, circle{fill:#000}@media (prefers-color-scheme:dark){path, circle{fill:#fff}}</style>
</svg>
