<?xml version="1.0" standalone="no"?>
<!DOCTYPE svg PUBLIC "-//W3C//DTD SVG 20010904//EN"
 "http://www.w3.org/TR/2001/REC-SVG-20010904/DTD/svg10.dtd">
<svg version="1.0" xmlns="http://www.w3.org/2000/svg"
 width="500.000000pt" height="500.000000pt" viewBox="0 0 500.000000 500.000000"
 preserveAspectRatio="xMidYMid meet">
<metadata>
Created by potrace 1.14, written by Peter Selinger 2001-2017
</metadata>
<g transform="translate(0.000000,500.000000) scale(0.100000,-0.100000)"
fill="#000000" stroke="none">
<path d="M1598 3303 c-4 -108 -1 -117 62 -215 47 -72 49 -85 15 -98 -24 -9
-25 -12 -19 -62 4 -33 23 -84 49 -133 91 -169 183 -459 171 -535 -3 -19 -6
-138 -7 -265 0 -126 -5 -247 -10 -268 -9 -33 -5 -50 41 -165 76 -193 136 -260
252 -284 l55 -12 119 95 c66 52 155 122 199 154 275 202 547 454 656 610 108
152 186 337 168 397 -5 18 -9 49 -9 70 0 20 -13 66 -29 101 -111 247 -312 404
-682 535 -63 22 -151 54 -197 71 -60 22 -101 31 -146 31 -34 0 -183 16 -331
35 -149 19 -289 35 -312 35 l-42 0 -3 -97z m592 -375 c58 -6 124 -10 148 -9
24 1 89 -10 145 -24 56 -14 115 -25 131 -25 18 0 40 -10 55 -24 15 -14 71 -48
126 -77 149 -76 158 -84 151 -128 -9 -60 -71 -172 -131 -238 -31 -34 -97 -94
-146 -134 -50 -39 -100 -86 -111 -105 -11 -19 -34 -42 -52 -51 -17 -9 -66 -42
-109 -74 -43 -33 -81 -59 -85 -59 -4 0 -15 69 -25 153 -33 278 -89 472 -198
687 -43 83 -55 116 -46 122 6 4 19 5 27 2 8 -3 62 -11 120 -16z"/>
</g>
</svg>
