<?xml version="1.0" standalone="no"?>
<!DOCTYPE svg PUBLIC "-//W3C//DTD SVG 20010904//EN"
 "http://www.w3.org/TR/2001/REC-SVG-20010904/DTD/svg10.dtd">
<svg version="1.0" xmlns="http://www.w3.org/2000/svg"
 width="700.000000pt" height="700.000000pt" viewBox="0 0 700.000000 700.000000"
 preserveAspectRatio="xMidYMid meet">
<metadata>
Created by potrace 1.14, written by Peter Selinger 2001-2017
</metadata>
<g transform="translate(0.000000,700.000000) scale(0.100000,-0.100000)"
fill="#000000" stroke="none">
<path d="M3281 5880 c0 -135 0 -272 0 -305 l-1 -60 -74 -24 c-76 -23 -187 -76
-228 -108 -112 -89 -225 -230 -277 -344 -89 -200 -99 -472 -23 -679 70 -193
240 -382 429 -478 57 -30 178 -69 238 -79 63 -9 244 -9 310 1 163 24 332 114
465 245 170 169 252 372 252 621 0 125 -16 217 -56 320 -95 247 -287 432 -523
502 l-73 21 0 51 c-1 28 -2 166 -3 306 l-2 255 -217 0 -217 0 0 -245z m348
-796 c128 -36 241 -146 287 -279 26 -75 23 -213 -6 -290 -51 -134 -160 -235
-295 -269 -128 -34 -271 -9 -368 64 -158 118 -216 295 -164 495 9 35 54 110
90 151 114 130 279 176 456 128z"/>
<path d="M2809 3873 c-5 -16 -18 -50 -29 -78 -10 -27 -42 -115 -70 -195 -29
-80 -67 -185 -85 -235 -18 -49 -99 -271 -179 -492 -80 -221 -152 -419 -160
-440 -16 -42 -140 -384 -193 -533 -18 -52 -42 -117 -53 -145 -10 -27 -46 -126
-80 -220 -60 -166 -62 -172 -55 -240 4 -38 9 -79 11 -90 4 -25 12 -81 29 -214
8 -57 16 -105 18 -107 2 -2 81 72 176 164 l172 169 135 374 c74 206 141 390
149 409 8 19 98 267 200 550 102 283 192 531 199 550 8 19 44 118 80 220 37
102 69 192 72 200 3 8 19 50 34 92 l29 77 -54 20 c-119 45 -231 107 -290 163
-37 35 -43 35 -56 1z"/>
<path d="M4145 3878 c-40 -40 -137 -99 -218 -134 -45 -20 -90 -40 -99 -45 -10
-5 -25 -9 -33 -9 -20 0 -19 -9 9 -82 13 -35 41 -108 61 -163 20 -55 49 -134
65 -175 16 -41 47 -127 70 -190 22 -63 47 -131 55 -150 8 -19 52 -138 99 -265
46 -126 108 -293 136 -370 28 -77 67 -183 86 -235 19 -52 39 -104 44 -115 5
-11 43 -114 85 -230 42 -115 92 -250 110 -300 18 -49 41 -112 51 -140 15 -43
43 -75 193 -222 96 -95 176 -171 178 -169 3 3 29 178 38 261 3 22 10 72 16
112 5 39 10 80 11 90 0 10 -73 216 -162 458 -89 242 -169 460 -177 485 -9 25
-20 49 -24 55 -5 5 -9 17 -9 27 0 9 -7 32 -15 50 -8 18 -39 101 -69 183 -30
83 -96 263 -146 400 -51 138 -107 291 -125 340 -18 50 -70 191 -115 315 -46
124 -85 228 -89 231 -3 4 -15 -2 -26 -13z"/>
</g>
</svg>
