<svg xmlns="http://www.w3.org/2000/svg" fill="currentColor" viewBox="0 0 239.84 485.44"><path d="M218.9 213.32c-12.22 17.8-29.64 32.51-49.48 42.69-19.88 10.25-42.08 16.15-64.68 18.17-11.34.98-22.94.87-34.47-1.16-11.47-2.01-22.99-5.95-32.98-12.78-4.94-3.33-9.67-7.63-13.42-12.43a62.455 62.455 0 0 1-9.07-15.83c-4.34-11.32-5.55-24.32-1.33-36.4 2.08-5.97 5.62-11.62 10.1-16 4.48-4.46 9.88-7.85 15.5-10.16 11.33-4.61 23.18-5.35 34.36-4.58 11.25.81 22 3.46 32.2 6.96 10.21 3.55 19.9 8.19 28.85 13.82 8.94 5.64 17.13 12.3 24.13 19.99 6.99 7.67 12.76 16.43 16.63 25.88 3.85 9.43 5.91 19.55 5.73 29.29-.02 9.77-1.87 19.06-4.57 27.58-2.55 8.18-5.9 15.65-9.45 22.58-3.56 6.94-7.36 13.35-11.14 19.39-7.62 11.97-15.02 22.85-22.29 32.68-14.51 19.68-28.11 35.31-40.07 48.05-12.02 12.7-22.37 22.57-31.17 30.25-8.76 7.72-15.87 13.34-21.5 17.53 2.18-.1 4.52-.26 7.02-.47 6.7-.5 13.2-1.49 19.59-2.5 6.36-1.05 12.45-2.39 18.32-3.73a459.27 459.27 0 0 0 16.37-4.41c5.05-1.57 9.66-3 13.74-4.27 4.08-1.3 7.58-2.46 10.47-3.27 5.78-1.63 8.97-1.99 8.66-.08-.55 3.39-15.4 16.06-39.65 27.27-11.98 5.64-26.23 10.61-41.08 13.94-7.49 1.59-15.08 2.9-22.74 3.52-7.06.49-16.41 1.72-24.42-1.96-3.87-1.85-6.65-5.54-6.98-10.27-.41-4.7 1.14-9.6 2.68-13.62 1.63-4.19 3.02-7.28 4.41-10.56 1.43-3.23 2.74-6.46 4-9.6 5.2-12.46 9.53-23.98 13.37-33.61 7.54-19.41 12.62-32.14 16.21-33.42 1.76-.64 2.89 1.6 3.35 6.28.44 4.67.3 11.87-.9 20.93-.29 2.28-.62 4.69-1.02 7.22-.43 2.49-.92 5.11-1.46 7.84-1.06 5.5-2.46 11.35-4.15 17.6-1.04 3.91-2.29 8.03-3.55 12.14 2.61-2.5 5.56-5.32 8.82-8.58 1.65-1.61 3.39-3.31 5.24-5.11 1.81-1.83 3.72-3.76 5.73-5.8 8.03-8.15 17.62-18.07 28.53-30.6 10.91-12.51 23.26-27.53 36.39-46.05 6.64-9.18 13.33-19.42 20.23-30.41 6.67-10.94 13.22-22.69 17.23-35.31 4.5-13.88 5.28-28.34-.35-42-5.44-13.7-17.07-26.4-31.98-35.91-7.44-4.77-15.68-8.81-24.38-11.92-8.73-3.09-17.82-5.38-26.78-6.1-8.94-.75-17.83 0-24.8 2.79-6.92 2.76-11.96 7.55-14.16 13.81-2.34 6.3-1.98 14.63.89 22.37 1.45 3.86 3.52 7.53 6.01 10.77 2.55 3.28 5.26 5.86 8.96 8.46 7.11 5.06 15.92 8.29 25.36 10.09 9.45 1.8 19.55 2.13 29.67 1.41 20.43-1.47 40.58-6.49 58.4-15.22 17.84-8.74 33.18-21.23 44.3-36.56 11.11-15.28 18.02-32.99 19.28-50.54 1.37-17.58-2.57-35.01-9.53-50.23-6.96-15.25-16.48-28.6-27.05-39.47a155.576 155.576 0 0 0-16.35-14.78c-5.56-4.44-11.18-8.39-16.72-11.9-11.06-7.09-21.71-12.58-31.25-17.04-9.54-4.46-17.97-7.93-24.88-10.7C85.99 3.82 78.25.92 78.52.16c.24-.69 8.46.79 22.97 4.99 7.25 2.12 16.05 4.98 26.09 8.9 10.03 3.92 21.29 8.98 33.15 15.78 5.93 3.39 12.01 7.23 18.06 11.67 3.07 2.15 6.03 4.58 9.1 7 2.95 2.57 6.02 5.13 8.9 8 11.73 11.23 22.55 25.2 30.69 41.76 8.13 16.48 13.32 35.97 12.21 56.42-.46 10.2-2.69 20.44-6.14 30.36-3.59 9.87-8.48 19.44-14.65 28.26"/></svg>