<svg xmlns="http://www.w3.org/2000/svg" xml:space="preserve" fill-rule="evenodd" clip-rule="evenodd" width="250"
  viewBox="0 0 60000 60000" fill="var(--border)">
  <path d="m30996 33742 5258 4922c118 110 124 295 14 413l-5121 5471c-110 118-295 124-413 14l-5471-5121c-118-110-124-295-14-413l4922-5258-5046-4724-4931 5263c-110 117-294 123-412 15L8536 23937l-2003 2140c-110 118-295 124-413 14-47-44-76-99-87-157h-1l-522-2667-924 988c-110 118-295 124-413 14-47-44-76-99-87-157h-1l-1076-5498c-31-159 73-313 232-344 40-8 79-7 116 1l5534 708c160 20 274 167 253 327-9 69-40 129-87 173l-915 978 2696 345c160 20 274 167 253 327-9 69-40 129-87 173l-2068 2209 11029 10186 4731-5050-5255-4919c-118-110-124-295-14-413l10243-10942c110-118 295-124 413-14l10942 10243c118 110 124 295 14 413l-4922 5258 5043 4721 10170-10998-2148-2010c-118-110-124-295-14-413 44-47 99-76 157-87v-1l2667-522-988-924c-118-110-124-295-14-413 44-47 99-76 157-87v-1l5498-1076c159-31 313 73 344 232 8 40 7 79-1 116l-708 5534c-20 160-167 274-327 253-69-9-129-40-173-87l-978-915-345 2696c-20 160-167 274-327 253-69-9-129-40-173-87l-2202-2062-10367 11212c-110 118-294 126-413 16l-5259-4923-4722 5045zm232 13979-431-398 398-431 431 398zm-6769-6454-398 431-431-398 398-431zm5176 4779-398 431-431-398 398-431zm-1725-1593-398 431-431-398 398-431zm-1725-1593-398 431-431-398 398-431zm11763-1775-431-398 398-431 431 398zm-4779 5176-431-398 398-431 431 398zm1593-1725-431-398 398-431 431 398zm1593-1725-431-398 398-431 431 398zM9367 26549l-398 431-431-398 398-431zm6901 6372-398 431-431-398 398-431zm-1725-1593-398 431-431-398 398-431zm-1725-1593-398 431-431-398 398-431zm-1725-1593-398 431-431-398 398-431zm40512-2759-431-398 398-431 431 398zm-6372 6901-431-398 398-431 431 398zm1593-1725-431-398 398-431 431 398zm1593-1725-431-398 398-431 431 398zm1593-1725-431-398 398-431 431 398zM5373 22561l-416-2124c-31-159 73-313 232-344 40-8 79-7 116 1l2123 272 823-879-4588-587 889 4539zm2614-1534-2376-304 889 4539 3699-3952zm44716-2203 2124-416c159-31 313 73 344 232 8 40 7 79-1 116l-272 2123 879 823 587-4588-4539 889zm1534 2614 304-2376-4539 889 3952 3699zm-18943 6863-5044-4722-4724 5043 5046 4724zm-10196-79 4924-5257 1 1c110-117 295-123 412-13l5258 4922 4722-5045-10516-9844-9844 10516 5042 4720zm10546 10672-5045-4722-4722 5045 5045 4722z" /></svg>