<svg xmlns="http://www.w3.org/2000/svg" viewBox="-5 -10 110 110" fill="currentColor"><path fill-rule="evenodd" d="m55.422 76.734 21.023-18.359 9.016 7.73zM23.555 58.375l21.016 18.359L14.54 66.105zm5.937-11.699-11.3 3.879 27.245 23.797zm9.489-9.09H26.973l20.086 34.852zm11.016-15.62-9.5 11.694 9.5 41.016 9.508-41.016zm23.03 15.62H61.02l-8.078 34.852zm8.782 12.97-11.301-3.88-15.949 27.676zm6.742 15.09-10.312-8.84 6.66-5.813c.684-.594.461-1.715-.398-2.004l-12.785-4.395 4.375-7.597c.465-.79-.125-1.77-1.012-1.77l-13.508-.004.371-1.593a1.2 1.2 0 0 0-.238-1.012l-10.789-13.27a1.175 1.175 0 0 0-1.828 0L38.302 32.62a1.22 1.22 0 0 0-.238 1.012l.37 1.593-13.507-.004c-.895 0-1.477.977-1.024 1.77l4.387 7.598-12.793 4.394c-.851.293-1.07 1.414-.387 2.004l6.66 5.813-10.311 8.84a1.178 1.178 0 0 0 .37 2.007L49.608 81.02c.261.094.527.09.785 0L88.18 67.652c.84-.297 1.078-1.41.37-2.008z"/></svg>