<svg xmlns="http://www.w3.org/2000/svg" xml:space="preserve" width="60" viewBox="0 0 67 67" fill="currentColor"><path d="M55.528 33.297h-.504V30.81a6.415 6.415 0 0 0-4.39-6.039l-3.312-1.104.027-.08a.75.75 0 0 0-.475-.949l-5.215-1.735C30.062 13.636 19.78 2.14 19.712 2.06a.75.75 0 0 0-.533-.302C17 1.547 14.977 5.017 15.453 7.722c-1.282 1.205-2.018 3.42-1.714 5.152-1.277 1.198-2.016 3.404-1.71 5.141-1.278 1.199-2.017 3.406-1.711 5.142C9 24.394 8.276 26.673 8.62 28.404c.273 1.366 1.175 2.008 1.816 2.008.313 0 .965-.108 2.41-.35 8.544-1.435 17.665-2.521 26.384-1.8l5.197 1.73A.76.76 0 0 0 45 29.95a.75.75 0 0 0 .376-.435l.029-.085 2.245.746a2.11 2.11 0 0 1 1.448 1.937c0 .023-.003.174 0 .197v1.362a.73.73 0 0 0-.114.374v1.88c0 .65-.529 1.178-1.233 1.18l-13.509.965a.75.75 0 0 0-.696.748v.985h-.668a2.66 2.66 0 0 0-2.66 2.659v2.002H18.997a.75.75 0 0 0-.75.75v3.286c0 .414.336.75.75.75h4.628v6.665l-3.166 4.218H18.24a.75.75 0 0 0-.75.75V64.5c0 .414.336.75.75.75h32.256a.75.75 0 0 0 .75-.75v-3.616a.75.75 0 0 0-.75-.75h-2.217l-3.166-4.218v-4.29h8.978a4.38 4.38 0 0 0 4.375-4.374v-11.02a2.94 2.94 0 0 0-2.937-2.936m-16.688-6.57c-8.654-.648-17.67.415-26.242 1.856-.907.152-1.77.297-2.08.324-.813-.481-.634-3.393.912-4.716 1.95.082 15.042.978 27.58 2.027zm.656-1.973c-8.231-.689-23.952-1.879-27.725-2.03-.158-1.385.572-3.143 1.529-3.816.822-.578-.302-1.04.413-3.189.705-2.121 1.884-1.866 1.58-2.798-.36-1.107.102-2.96 1.066-3.98 3.099 2.13 16.257 10.505 23.414 14.981zM16.963 7.56c-.379-1.686.767-3.939 1.843-4.271 1.766 1.95 11.022 11.863 21.636 18.62l-.182.548c-10.69-6.687-21.694-13.8-23.297-14.897m27.227 20.77-3.87-1.287 1.498-4.506 3.87 1.288zm3.937.424-2.247-.746.972-2.916 3.31 1.103a4.91 4.91 0 0 1 3.362 4.621v2.48h-2.93l-.002-.892c.018-.14.018-.27.006-.34a3.64 3.64 0 0 0-2.47-3.31M35.046 39.518l12.759-.913a2.68 2.68 0 0 0 2.679-2.678v-1.13h3.177l.01 3.862a3.106 3.106 0 0 1-3.106 3.113H35.046zm14.7 22.117v2.116H18.988v-2.116zM46.4 60.132H22.336l2.413-3.215h19.238zm-21.277-4.715v-6.165h18.488v6.165zm19.164-7.668-24.542.003v-1.786h29.242v1.786c-19.284 0-5.897-.003-4.7-.003m12.677-.496a2.88 2.88 0 0 1-2.875 2.875h-8.978v-.876h4.626a.75.75 0 0 0 .75-.75v-3.286a.75.75 0 0 0-.75-.75h-18.02v-2.002c0-.64.52-1.159 1.16-1.159h.668v1.217c0 .414.336.75.75.75h16.269a4.605 4.605 0 0 0 4.606-4.616l-.01-3.86h.367c.792 0 1.437.645 1.437 1.437z"/></svg>