<svg xmlns="http://www.w3.org/2000/svg" fill="currentColor" viewBox="0 0 295.04 159.84" width="5em"><path d="M107.26 20.09C107.26 8.5 108.34 0 123.53 0s15.48 8.35 15.48 19.8c0 4.32.22 8.57.22 12.38 0 11.38-1.8 19.66-15.7 19.66-15.19 0-16.27-8.5-16.27-20.02 0-1.94.07-3.89.07-5.9s-.07-3.96-.07-5.83Zm12.31-6.05v22.68c0 2.16 0 5.04 3.6 5.04s3.6-2.88 3.6-5.04V14.04c0-1.8 0-3.96-3.6-3.96s-3.6 2.16-3.6 3.96ZM163.78 23.4c.22 0 .36-.22.36-.72V6.12c0-2.88 0-5.76 4.32-5.76h3.6c4.32 0 4.32 2.88 4.32 5.76v39.6c0 2.88 0 5.76-4.32 5.76-6.48 0-6.98-1.15-7.99-3.31l-9.58-20.81c-.22-.43-.43-.72-.58-.72-.22 0-.29.29-.29.72l.07 18.36c0 2.88 0 5.76-4.32 5.76h-3.6c-4.32 0-4.32-2.88-4.32-5.76V6.12c0-2.88 0-5.76 4.32-5.76h3.82c2.38 0 3.17.29 4.25 2.52l9.29 19.8c.22.5.43.72.65.72ZM201.29 23.4c.22 0 .36-.22.36-.72V6.12c0-2.88 0-5.76 4.32-5.76h3.6c4.32 0 4.32 2.88 4.32 5.76v39.6c0 2.88 0 5.76-4.32 5.76-6.48 0-6.98-1.15-7.99-3.31L192 27.36c-.22-.43-.43-.72-.58-.72-.22 0-.29.29-.29.72l.07 18.36c0 2.88 0 5.76-4.32 5.76h-3.6c-4.32 0-4.32-2.88-4.32-5.76V6.12c0-2.88 0-5.76 4.32-5.76h3.82c2.38 0 3.17.29 4.25 2.52l9.29 19.8c.22.5.43.72.65.72ZM228.73 45.72c0 2.88 0 5.76-4.32 5.76h-3.6c-4.32 0-4.32-2.88-4.32-5.76V6.12c0-2.88 0-5.76 4.32-5.76h3.6c4.32 0 4.32 2.88 4.32 5.76v39.6ZM243.56 38.31c.14 1.58 1.58 2.38 3.02 2.38 4.1 0 5.47-.14 6.98-.14 3.02 0 3.96.86 3.96 3.02v5.04c0 2.16-.72 2.88-2.88 2.88h-19.01c-4.32 0-4.32-4.32-4.32-5.76V6.12c0-2.88 0-5.76 4.32-5.76h18.58c1.8 0 3.38.72 3.38 2.16v6.12c0 1.73-1.44 1.8-3.24 1.8-2.81 0-5.04-.14-6.84-.14-3.96 0-3.96 1.44-3.96 3.74 0 4.68 0 5.9 3.6 5.9 4.46 0 5.18-.14 6.84-.14 2.52 0 2.66 2.52 2.66 3.31v4.61c0 2.16-1.51 2.3-3.31 2.3-3.67 0-5.98-.14-7.49-.14-2.3 0-2.3 1.01-2.3 3.38v5.04ZM107.12 65.3c0-1.94 0-2.09 1.22-5.83 1.08-3.38 2.3-4.18 4.32-4.18h2.38c1.3 0 1.73.07 1.73 1.37 0 1.66-1.87 1.66-1.87 4.39 0 1.44.43 1.44 1.44 1.44 1.58 0 3.02 1.44 3.02 2.88v7.2c0 2.88-2.02 2.88-3.31 2.88h-5.83c-1.66 0-3.1 0-3.1-2.88V65.3ZM157.09 101.88c0 3.31-2.23 3.6-6.34 3.6h-3.82c-4.46 0-2.23-10.8-5.11-10.8h-5.76c-2.88 0-1.22 10.8-5.54 10.8h-3.38c-3.74 0-5.98-.29-5.98-3.6 0-4.32 1.73-8.14 7.34-41.76.58-3.6 2.02-5.76 4.9-5.76h11.09c2.88 0 4.32 2.16 5.04 5.76 4.9 29.52 7.56 37.44 7.56 41.76Zm-20.96-19.15c0 1.15.5 1.15 2.81 1.15s2.81 0 2.81-1.08c0-.29 0-.65-.07-1.15-.86-7.06-1.15-15.77-2.74-15.77s-2.02 8.64-2.74 15.77c-.07.43-.07.79-.07 1.08ZM186.9 58.39c1.58-3.74 3.24-4.03 5.83-4.03h3.89c4.32 0 4.32 2.88 4.32 5.76v39.6c0 2.88 0 5.76-4.32 5.76h-3.6c-4.32 0-4.32-2.88-4.32-5.76v-19.8c0-.43-.14-.72-.36-.72s-.43.29-.65.72c-5.11 10.15-5.26 12.6-7.63 12.6s-2.59-2.45-7.63-12.6c-.22-.43-.5-.72-.65-.72-.22 0-.36.29-.36.72v19.8c0 2.88 0 5.76-4.32 5.76h-3.6c-4.32 0-4.32-2.88-4.32-5.76v-39.6c0-2.88 0-5.76 4.32-5.76h3.82c2.66 0 4.32.36 5.9 4.03l5.4 12.75c.58 1.3.94 2.02 1.44 2.02s.86-.72 1.44-2.02l5.4-12.75ZM238.95 101.88c0 3.31-2.23 3.6-6.34 3.6h-3.82c-4.46 0-2.23-10.8-5.11-10.8h-5.76c-2.88 0-1.22 10.8-5.54 10.8H209c-3.74 0-5.98-.29-5.98-3.6 0-4.32 1.73-8.14 7.34-41.76.58-3.6 2.02-5.76 4.9-5.76h11.09c2.88 0 4.32 2.16 5.04 5.76 4.9 29.52 7.56 37.44 7.56 41.76ZM218 82.73c0 1.15.5 1.15 2.81 1.15s2.81 0 2.81-1.08c0-.29 0-.65-.07-1.15-.86-7.06-1.15-15.77-2.74-15.77s-2.02 8.64-2.74 15.77c-.07.43-.07.79-.07 1.08ZM254.21 100.23c-.14 2.74-.29 5.26-4.32 5.26h-3.6c-4.32 0-4.32-2.88-4.32-5.76V66.82c0-1.8-.36-2.23-1.87-2.23-.5 0-1.22.07-2.09.07-1.8 0-3.24-.29-3.24-2.02v-6.12c0-1.44 1.58-2.16 3.38-2.16h19.87c1.8 0 3.38.72 3.38 2.16v6.12c0 1.73-1.44 2.02-3.24 2.02-.5 0-1.15-.07-2.02-.07-1.8 0-1.94.43-1.94 2.23v33.41ZM263.07 74.09c0-11.59 1.08-20.09 16.27-20.09s15.48 8.35 15.48 19.8c0 4.32.22 8.57.22 12.38 0 11.38-1.8 19.66-15.7 19.66-15.19 0-16.27-8.5-16.27-20.02 0-1.94.07-3.89.07-5.9s-.07-3.96-.07-5.83Zm12.31-6.05v22.68c0 2.16 0 5.04 3.6 5.04s3.6-2.88 3.6-5.04V68.04c0-1.8 0-3.96-3.6-3.96s-3.6 2.16-3.6 3.96ZM119.79 146.31c.14 1.58 1.58 2.38 3.02 2.38 4.1 0 5.47-.14 6.98-.14 3.02 0 3.96.86 3.96 3.02v5.04c0 2.16-.72 2.88-2.88 2.88h-19.01c-4.32 0-4.32-4.32-4.32-5.76v-39.6c0-2.88 0-5.76 4.32-5.76h18.58c1.8 0 3.38.72 3.38 2.16v6.12c0 1.73-1.44 1.8-3.24 1.8-2.81 0-5.04-.14-6.84-.14-3.96 0-3.96 1.44-3.96 3.74 0 4.68 0 5.9 3.6 5.9 4.46 0 5.18-.14 6.84-.14 2.52 0 2.66 2.52 2.66 3.31v4.61c0 2.16-1.51 2.3-3.31 2.3-3.67 0-5.98-.14-7.49-.14-2.3 0-2.3 1.01-2.3 3.38v5.04ZM151.25 108c5.98 0 10.01 1.08 10.01 3.1v5.54c0 .79-.29 2.16-2.74 2.16h-.58c-1.15 0-3.74-.79-5.83-.79-1.73 0-3.1.58-3.1 2.88s.65 3.38 3.46 5.69c8.57 7.06 10.3 12.1 10.3 17.93 0 3.31-.07 6.34-1.94 9.14-2.38 3.6-6.12 4.97-7.7 5.4-1.94.5-4.68.79-6.91.79-5.33 0-10.51-1.01-10.51-3.89v-5.54c0-.86.72-1.73 2.66-1.73s3.46 1.08 7.56 1.08c2.02 0 4.75-1.58 4.75-3.82 0-1.66-.07-2.88-4.46-7.2-6.7-6.55-9.86-9.58-9.86-15.48 0-14.19 9.14-15.27 14.91-15.27ZM177.03 153.72c0 2.88 0 5.76-4.32 5.76h-3.6c-4.32 0-4.32-2.88-4.32-5.76v-39.6c0-2.88 0-5.76 4.32-5.76h3.6c4.32 0 4.32 2.88 4.32 5.76v39.6ZM202.52 139.75c0-2.23-1.3-2.3-2.66-2.3-2.38 0-2.66-1.15-2.66-3.1v-.72c0-5.83.07-6.19 3.46-6.19h10.3c3.1 0 3.1 1.51 3.1 2.88v22.47c0 7.06-6.98 7.06-11.09 7.06-11.45 0-23.91-5.18-23.91-26.43S192.31 108 201.17 108c7.49 0 10.51.79 10.51 3.02v5.69c0 1.3-.94 1.73-2.09 1.73-2.23 0-4.46-.94-7.7-.94-9.14 0-10.22 12.75-10.22 15.7 0 5.9 1.08 16.2 8.42 16.2 1.44 0 2.45-.72 2.45-3.24v-6.41ZM238.73 131.4c.22 0 .36-.22.36-.72v-16.56c0-2.88 0-5.76 4.32-5.76h3.6c4.32 0 4.32 2.88 4.32 5.76v39.6c0 2.88 0 5.76-4.32 5.76-6.48 0-6.98-1.15-7.99-3.31l-9.58-20.81c-.22-.43-.43-.72-.58-.72-.22 0-.29.29-.29.72l.07 18.36c0 2.88 0 5.76-4.32 5.76h-3.6c-4.32 0-4.32-2.88-4.32-5.76v-39.6c0-2.88 0-5.76 4.32-5.76h3.82c2.38 0 3.17.29 4.25 2.52l9.29 19.8c.22.5.43.72.65.72ZM47.04.44c49.28 0 56 31.36 56 79.52s-4.48 79.52-56 79.52h-33.6C0 159.48 0 150.52 0 141.56V18.36C0 9.4 0 .44 13.44.44h33.6Zm-9.18 37.19c0 25.31.22 52.86.22 79.3 0 5.82.45 11.2 4.48 11.2 16.8 0 17.92-13.44 17.92-49.28 0-31.36-1.12-48.16-17.92-48.16-4.03 0-4.7 2.24-4.7 6.94Z"/></svg>