<svg xmlns="http://www.w3.org/2000/svg" role="presentation" fill="currentColor" width="4em" viewBox="0 0 184.57 116.23"><path d="M92 85.91zM170.73 28.9c.2 0 .33-.08.35-.27.02-.23-.13-.33-.34-.33-.2 0-.4.11-.4.3 0 .21.25.22.4.3Z"/><path d="M184.5 18.71c-.18-.5-.35-1.01-.68-1.44-.12-.16-.24-.38-.48-.16-.36.32-.92.34-1.17.82-.08.15-.24.21-.42.1-.15-.09-.32-.09-.45.05-.29.31-.55.35-.86 0-.14-.16-.29-.02-.37.14-.27.18-.42.35-.28.74.1.28.13.67-.1.97-.21 0-.32-.15-.45-.28-.35-.34-.53-.09-.6.21-.14.63-.21.7-.81.44-.22-.09-.34-.08-.45.11-.04 0-.07.01-.11.02-.25-.05-.32-.17-.13-.38-.02-.19.08-.46-.17-.52-.19-.04-.27.2-.36.35-.22.38-.58.29-.92.29.07-.36-.05-.99.29-1.01.69-.04 1.26-.73 2.01-.36.05.02.19-.03.2-.07.11-.45.58-.71.64-1.25-.45.12-.76-.28-1.18-.23-.31.14-.63.41-.93.39-.65-.05-.53.29-.46.66-.04.05-.07.1-.11.15-.58.5-1.3.92-1.2 1.86 0 .03-.01.07-.03.1-.04-.01-.08-.02-.12 0-.16.61-.33 1.23-.49 1.84v.98c-.04.08-.08.17-.12.25-.16.14-.16.34-.11.51.11.38-.05.69-.28.93-.27.29-.35.62-.37.99.02.02.04.03.05.04v.01l-.05-.05c-.21.07-.39.04-.57-.11-.41-.34-.67-.14-.94.24-.22.31-.15.67-.3.98-.1.22-.22.46.01.68.09.08.19.05.28-.02.23-.18.27-.39.15-.65-.02-.04 0-.11.01-.17.5.27.73.56.61.87-.3.72-.54 1.45-.81 2.18-.05.13-.04.47-.35.4-.27-.06-.37-.26-.39-.55-.03-.52-.42-.71-.87-.47-.25.13-.21.37-.26.58-.33.22-.13.39.04.58.35.42.7.85 1.02 1.29.13.17.13.4 0 .57-.15.19-.29 0-.43-.05-.2-.06-.39-.12-.58-.18-.05-.34-.03-.69-.25-.98-.07-.14-.13-.24-.32-.11-.31.21-.58.93-.6 1.47-.03.12 0 .25.04.38 0 .04.01.07.02.11-.11.14-.09.35-.27.46-.55.36-.82.86-.75 1.54.01.11.05.37-.18.22-.3-.19-.29.07-.38.19-.16.2-.1.54-.39.66-.34.63-.68 1.26-.86 1.96-.14.26-.3.51-.24.83-.15.58-.63.97-.86 1.51-1.71 4.31-3.43 8.63-5.14 12.94-.12-.3-.14-.57-.11-.84.27-2.62.43-5.25.6-7.88.1-1.45.17-2.9.4-4.33.26-1.63.52-3.26 1.01-4.85.07-.24.13-.5.02-.72-.42-.83-.4-1.7-.19-2.55.33-1.35.32-2.7.19-4.07-.01-.13-.13-.27.1-.34.42-.14.26-.4.1-.62-.21-.3-.44-.58-.67-.87v-.12c-.15-.52-.1-1.15-.71-1.44h-.08c-.03-.05-.07-.09-.09-.09-.59.13-1.04.76-1.74.51-.27.64-.91.4-1.24.32-.75-.19-1.38.1-2.01.31-.37.13-.62.11-.88-.11-.44-.38-1.22-.26-1.41-.98 0-.03-.14-.08-.16-.06-.4.33-1.08.21-1.33.76h-.08c-.27.07-.46-.2-.72-.15-.05 0-.09.04-.14.05-.2-.01-.38.08-.56.15-.15.18-.25.4-.49.48-.04.07-.08.15-.12.22-.03.01-.05.04-.08.05-.04.03-.07.07-.11.11-.21.19-.37.41-.49.67-.06.08-.12.15-.19.21-.21.25-.4.51-.51.82l-.06.15c-.05.07-.08.14-.12.21-.3.55-.82 1-.82 1.69-.89.65-1.23 1.68-1.76 2.58-.41.69-.43.81-.92.64-.09-.06-.2-.13-.32-.21-.3-.06-.51.04-.63.33-.03.1-.03.2-.07.29-.02.03-.03.07-.05.1-.14.21-.33.26-.53.24h-.05c-.04 0-.08-.02-.12-.03-.14-.05-.23-.16-.19-.3.27-.94.36-1.93.72-2.85.27-1.27.75-2.49.86-3.8.05-.21-.06-.44.12-.63.27-.33.11-.5-.22-.63-.15-.05-.16-.18-.09-.3.09-.14.18-.12.28.01.22.3.33.13.37-.12.04-.22.03-.45.05-.67.21-.43.29-.88.22-1.36.01-.04.02-.07.02-.11.39-.44.35-1.02-.13-1.61-.06-.28-.02-.54.27-.67.32-.15.37-.44.49-.72.24-.57-.06-1.12-.02-1.68.16-.42.32-.83.48-1.25-.07-.32-.14-.65-.22-.97-.08-.18-.15-.37-.2-.56-.02-.11-.04-.21-.04-.32V15.06c.02-.19 0-.38-.23-.51-.53-.3-1-.5-1.44.15-.11.16-.38.21-.58.31-.24.08-.48.17-.73.25-.22-.06-.35.23-.55.29h-.06c-.03 0-.06 0-.09-.01h-.01c-.04-.02-.09-.04-.14-.09-.44-.37-.96-.27-1.42-.03-.39.21-.75.55-.95-.17-.01-.04-.1-.11-.13-.1-.43.16-.85.43-1.32.13 0 0-.1.11-.13.18-.06.13-.09.32-.28.23-.13-.06-.08-.25-.07-.39 0-.14.36-.23.1-.38-.18-.11-.44-.13-.63.07-.16.17-.32.32-.58.26-.29-.2-.39-.47-.27-.81-.27-.37-.56-.73-.39-1.25.06-.16-.07-.3-.24-.37-.47-.2-1.01 0-1.28.43-.14.22-.26.57-.62.46-.42-.13-.78.02-1.13.19s-.01.01-.01.02c-.06-.06-.13-.07-.22-.05h-.08c-.13-.05-.31.04-.41-.1-.22-.23-.61-.05-.81-.36-.17-.27-.43-.29-.68-.07-.07.06-.16.18-.25.07-.31-.37-.68-.14-1.03-.1-.18.02-.41.11-.43-.17-.03-.37-.23-.56-.56-.46-.3.09-.78.12-.82.42-.04.29.48.21.69.41.04.03.11.02.17.03.07.13.09.23-.11.24-.12-.05-.21-.17-.36-.12-.13-.05-.28-.11-.38-.12-.57-.06-1.12-.39-1.71-.14-.21.33-.58.55-.72.94-.01.03-.04.05-.05.07-.02.04-.04.08-.07.12-.42.28-.7.71-1.08 1.04-.57.51-1.07 1.1-1.5 1.75-.09.09-.18.2-.26.31-.01.02-.02.03-.03.05-.31.31-.45.73-.59 1.14-.16.32-.4.57-.64.84-.04.04-.08.08-.11.13-.29.26-.36.72-.66.92-.44.29-.58.66-.56 1.11-.01.02-.02.05-.04.08-.03.05-.06.1-.08.15-.02.05-.05.1-.07.15-.63.56-1.19 1.17-1.44 2.01-.23.14-.2.38-.25.6-.04.08-.07.17-.11.25-.36.48-.65 1.02-.99 1.52-.54.8-.89 1.71-1.5 2.48-.32.41-.62.9-.66 1.43-.02.35.22.72-.38.76-.13 0-.17.19-.06.29.11.1.13.17.11.23-.05.04-.1.08-.16.11-.02 0-.05.01-.07.02-.52.06-.68.47-.87.85-.07.14-.11.31-.2.44-.83 1.24-1.51 2.56-2.18 3.9 0 0-.01.02-.02.03-.02.04-.04.07-.06.11-.14.23-.29.45-.41.68-.18.32-.44.62-.36 1.02.18.89-.23 1.4-1 1.72-.17.07-.31.2-.35.4-.21.95-.97 1.56-1.42 2.38.02-.46.01-.94.22-1.3.17-.29.24-.57.27-.85.05-.12.05-.25.02-.38-.02-.24-.09-.49-.18-.73 0-.11 0-.22-.01-.33-.23-.54-.49-1.07-.65-1.64-.07-.25-.28-.45-.51-.59-.26-.14-.55-.16-.7.12-.3.57-.74.83-1.37.8-.1 0-.2.05-.29.1-.43.3-.86.29-1.28.03v-.04h-.13c-.16-.04-.33-.04-.49-.04-.14-.01-.28-.01-.41.02h-.24c-.25.11-.46.26-.57.52 0 .01 0 .03-.01.04-.08-.09-.06-.29-.23-.29-.38-.16-.71.16-1.08.12l.01-.01c-.22-.15-.45-.22-.46-.6 0-.4-.4-.45-.78-.14-.36.12-.73.2-.99.52-.11.14-.22.08-.37.01-.79-.35-1.08-.2-1.35.69-.27-.09-.49-.1-.65.22-.3.6-.64 1.17-.96 1.75-.4.73-.79 1.46-1.19 2.2-.06.1-.12.24-.27.2-.16-.05-.1-.2-.09-.31.11-.91.11-1.86.37-2.73.61-2.02.81-4.12 1.31-6.15.6-2.46 1.15-4.92 1.74-7.38.39-1.62.82-3.24 1.23-4.86.04-.11.1-.22.13-.33.35-1.29.62-2.6 1.06-3.86.49-1.42.78-2.9 1.39-4.27.15-.33.32-.65.28-1.03 0-.03.02-.05.03-.08.16-.07.04-.29.17-.37.17-.36.13-.77.34-1.12.23-.15.06-.46.26-.62.05-.33.02-.64-.1-.95.26-.19.36-.44.24-.76.16-.61.05-1.32.67-1.76.1-.07.06-.19 0-.27-.26-.32 0-.4.22-.53.55-.32.67-1.31.21-1.73.31.03.51-.12.59-.41.08-.3-.17-.29-.35-.38-.17-.08-.1-.29-.12-.44.34-.17.5-.39.2-.74-.14-.17-.06-.39-.07-.58-.01-.32.02-.65-.25-.89a2.97 2.97 0 0 0-.26-.97c-.29 0-.47-.48-.81-.22-.64.49-1.41.66-2.14.93-.39.15-.72.27-1.04-.12-.16-.2-.41-.17-.63-.14-.49.08-.95.2-1.3.6-.19.22-.54.35-.62-.02-.14-.58-.46-.36-.78-.3-.22.22-.44.11-.65-.02-.14-.26-.33-.31-.61-.2-.49.2-1.05.22-1.47.61-.13.12-.26.04-.41-.1-.55-.5-1.06-.41-1.37.26-.12.27-.39.35-.58.52-.24.02-.36.22-.5.37-.23.12-.23.31-.15.52.05.12.07.29-.08.3-.73.07-.35.56-.36.91-.1.23-.24.41-.5.49-.79.14-.73.81-.85 1.36-.29.01-.47.2-.49.45-.08.96-.44 1.79-1.14 2.45-.32.3-.3.81-.68 1.05-.03.16-.02.35-.1.47-.33.45-.46 1-.75 1.46-.19.3-.28.62-.04.91.18.22-.02.38 0 .57-.04.04-.08.09-.12.13-.73.48-.9 1.39-1.5 1.97-.01.01-.01.04-.02.06-.38.64-.29 1.46-.77 2.08-.09.12-.38.44 0 .72.22.16 0 .31-.22.32-.42 0-.62.24-.69.62h-.11c-1.22 2.71-2.19 5.53-3.46 8.21-.08.12-.06.25-.02.38h.03l-.51 1.69c-.48.38-.55 1-.85 1.48-.29.86-.59 1.72-.87 2.58-.1.29.22.86-.32.81-.49-.04-.23-.59-.28-.93.26-.63.52-1.26.38-1.97s-.06-.1-.08-.16c.02.05.05.11.08.16.16-1.1.31-2.21.47-3.31.02-.57-.06-1.16.07-1.7.32-1.38.19-2.78.29-4.17-.16-.18-.2-.39-.2-.62.55-.88.35-1.66-.3-2.39.31-.69.77-1.35.46-2.17-.16-.42-.29-.84-.44-1.26-.11-.31-.33-.66.3-.6.12.01.2-.08.19-.19-.08-.88.33-1.83-.35-2.63a1.86 1.86 0 0 1-.23-1.09c.02-.26.14-.72-.43-.65-.51.06-.2-.61-.57-.63-.21 0-.47.03-.61.2-.21.26-.51.39-.75.6-.26.15-.52.3-.77.47-.37.25-.57.34-.73.24l-.16-.16c-.07-.1-.13-.22-.21-.39-.23-.27-.55-.1-.82-.17-.42-.1-.8-.05-1.12.26-.16-.04-.32-.07-.49-.11-.46.06-.92.05-1.34-.18v-.08c-.43-.18-1.04-.04-1.42.32l-.02.02c-.03.03-.08.06-.11.1-.23.3-.49.38-.79.25-.46-.21-.74-.13-.87.37-.03.13-.1.26-.22.27-.57.09-.7.59-1.02.95-.38.43-.73.89-1.06 1.35 0 0-.01.02-.02.02-.28.38-.55.77-.83 1.15-.1.03-.2.07-.29.1-.41.71-.84 1.42-1.22 2.14-.25.47-.65.88-.71 1.44-.3.81-.76 1.54-1.14 2.31-.23.12-.35.33-.43.56-.26.72-.65 1.38-1.02 2.04-.15.27-.25.56-.39.84-.22.31-.37.64-.49.99-.19.28-.41.55-.47.76.14-.23.13-.63.23-1.01.36-1.11.65-2.24 1.1-3.31.08-.09.07-.18.04-.28.01-.02.02-.04.03-.07.52-1.37 1.07-2.73 1.59-4.1.46-1.29.87-2.61 1.39-3.88.44-1.07.78-2.18 1.24-3.24 0-.07 0-.15.02-.22.16-.64.28-1.29.52-1.9.18-.46.42-.87.12-1.36-.03-.05-.04-.27.1-.2.53.25.32-.21.38-.39.18-.52-.37-.84-.39-1.29-.02-.47-.12-.92-.24-1.37-.08-.24-.17-.49-.25-.73-.11-.15-.03-.31-.02-.47 0-.22-.04-.41-.33-.39 0 0 0 .02-.01.02v-.02c-.35-.54-.59-.03-.87.09-.12.16-.25.31-.37.47-.41.45-.91.72-1.53.73-.28 0-.79.41-.65-.37.02-.13-.13-.22-.26-.19-.29.05-.62-.02-.85.25-.03 0-.06.01-.09.02-.18.22-.51.38-.66.18-.41-.57-.8-.24-1.22-.09-.2-.07-.34.14-.52.16-.02-.28.17-.64-.32-.63-.16.26-.59.19-.68.55-.38-.16-.85.05-1.2-.26-.11-.1-.2-.21-.36-.11-.13.08-.06.2-.05.32.03.35-.1.55-.49.38-.12-.05-.23-.05-.32.07-.03.04-.06.07-.09.11-.02 0-.03-.02-.05-.02-.29.16-.49.4-.6.71-.03.1-.07.19-.12.28-.19.19-.35.41-.48.65-.06.05-.16.08-.19.14-.37 1.06-1.25 1.84-1.64 2.89-.14.39-.38.56-.63.04-.15-.32-.05-.73-.36-.99 0-.22.01-.45 0-.67-.03-.51-.5-.66-.82-.91-.28-.23-.47.08-.67.24 0 .03.01.07.02.1-.15.13-.21.33-.36.45-.05.05-.11.07-.16.1-.17.02-.35.02-.52.07-.07 0-.14.01-.21.03-.11.03-.22.08-.32.15-.09.06-.19.11-.29.13a.953.953 0 0 1-.68-.22c-.32-.26-.92-.12-1.29.15-.07.03-.13.05-.2.08-.05.03-.09.06-.14.08-.03 0-.05-.02-.08-.03-.27-.19-.56-.3-.9-.21h-.03c-.15.05-.3.07-.43.04a.278.278 0 0 1-.17-.18c-.15-.51-.47-.45-.8-.26-.52.3-.72-.01-.87-.41 0-.02 0-.04-.01-.06-.04-.15-.04-.32-.06-.48h-.03v-.04c-.06-.26-.05-.53-.08-.79-.06-.47-.48-.62-.83-.79-.32-.16-.46.16-.61.36-.32.41-1.34.7-1.87.57-.44-.11-.9-.22-1.32.05-.21.13-.34-.01-.51-.05h-.02v-.02h-.2c-.06 0-.13 0-.19.03-.32.06-.64.1-.82-.38-.02-.06-.17.03-.23.14-.03 0-.05 0-.08.02-.07.05-.14.08-.21.11-.17.03-.34.06-.47.17-.02 0-.04.01-.06.02-.05.01-.1.03-.14.05-.16-.09-.33-.16-.5-.25-.28-.02-.61.03-.59.35.02.32-.07.34-.32.33a.46.46 0 0 0-.33.13c-.02.04-.01.08 0 .11l-.25.25c-.07.04-.16.06-.2.12-.77 1.07-1.56 2.12-2.17 3.29-.26.5-.37 1.11-.73 1.52-.65.73-.9 1.66-1.46 2.43-.22.39-.45.77-.64 1.18-.43.89-.81 1.8-1.26 2.68-.78 1.54-1.45 3.14-2.13 4.73-.81 1.87-1.59 3.75-2.37 5.63-.98 2.36-1.74 4.79-2.55 7.21-.69 2.07-1.3 4.16-1.92 6.25-.67 2.27-1.45 4.5-2.01 6.8-.65 2.63-1.42 5.23-2 7.88-.22.99-.53 1.97-.59 2.99-.3 1.63-.59 3.26-.89 4.9-.13.19-.13.42-.18.64-.32 1.72-.67 3.44-.95 5.17-.26 1.62-.71 3.22-.83 4.87-.49.8-.44 1.73-.59 2.6C1.34 82.37.56 87.31.22 92.3c-.2.41-.07.82-.07 1.24 0 .67.52 1.19.55 1.84.02.43.15.74.5.98.17.13.31.02.45-.05.15-.07.26-.09.32.12.13.49.49.38.83.31.35-.23.73-.08 1.1-.11.2.13.35.12.53-.08.22-.26.5-.47.79-.75.02.26-.12.35-.18.47-.09.2.08.29.2.4.08.07.2.1.24-.04.15-.48.45-.26.65-.11.31.23.37.07.53-.18.27-.42.39-.94.79-1.36-.02 2.48-.22 4.87-.18 7.27 0 .55.17.96.77 1.06.58.1 1.12.47 1.75.3.1.15.28.16.38.08.45-.38.93-.58 1.55-.53.26.02.49-.06.73.13.42.33.85.48 1.29-.01.21-.24.44-.16.59.1.36.6 1.11.68 1.48.07.27-.45.57-.36.85-.17.89.61 1.69.19 2.51-.16.14-.01.3-.08.42-.03.64.28 1.36-.1 2 .24.22.12.47-.05.66-.22.43-.37.63-.31.8.2.17.53.5.59.88.16.35.14.6.12.72-.32.06-.21.11-.53.48-.41.31.1.27.36.25.61-.03.45-.04.89-.07 1.34-.1 1.3.13 2.59.1 3.87-.04 1.74.21 3.42.48 5.11.05.03.09.02.13 0 .68.36.91.91.68 1.6-.11.34.1.55.51.5.17-.02.33-.22.51-.05.77.73 1.58.05 2.36.05.25-.2.52-.11.71.06.26.23.44.16.64-.06h.06l.06-.01c.01-.01.03-.02.04-.03v.08c1.06.22 1.24.15 1.45-.54.05-.12.08-.39.2-.27.3.28.62-.01.9.14.21.32.5.58.76.85.36.37.63.31.76-.18.07-.27.23-.35.45-.4v-.04c.14.03.25-.04.36-.11.28.06.44.28.63.46.45.31.67.25.84-.23.35-.75.31-1.59.57-2.36.06-.35.13-.7.19-1.06.32-.19.75-.26.81-.72.16-1.28.36-2.56.44-3.85.03-.43.09-.93-.17-1.36 0-.13.02-.26.14-.32.5-.23.58-.7.65-1.16.24-1.59.46-3.18.69-4.77.31-.57.21-1.23.35-1.83.38-1.64.33-3.36.93-4.97.13-.35.1-.77.2-1.14.35-1.26.5-2.55.48-3.86.55-1.29.76-2.66.95-4.04-.4-.35-.15-.68.02-1.02.06-.11.11-.23.17-.34.07-.08.15-.16.22-.25.04-.04.08-.09.11-.13.04-.04.08-.09.11-.13.33-.47.15-1.12.36-1.51.46-.87.46-1.77.62-2.67.07-.17.3-.25.25-.48.24-.2-.02-.55.23-.75.31-.24.09-.56.15-.84.04-.35-.18-.8.15-1.02.42-.28.53-.67.69-1.08.18-.69.35-1.38.53-2.07.14-.49-.14-1.08.36-1.48 0-.1 0-.2.11-.26v-.25c.41-.76.1-1.68.52-2.44.19-.21.25-.49.35-.75.6-1.01.85-2.15 1.2-3.25.07-.14.15-.27.24-.4.06-.17.16-.32.17-.51 0-.13.04-.25.06-.37.22-.49.4-1 .58-1.5.09-.17.17-.34.25-.51.03-.05.06-.1.08-.16.06-.16.09-.32.1-.47.21-.55.43-1.09.64-1.64.07-.08.14-.18.2-.27.4-.75.51-1.61.98-2.33 0-.05.03-.09.04-.13.06-.1.07-.23.11-.34v-.02c.02-.05.06-.1.12-.13.21-.49.41-.98.62-1.47 0-.07 0-.14.01-.2.02-.03.03-.07.05-.11.02-.05.04-.11.05-.17 0-.07-.03-.12-.05-.17.09-.58.38-1.08.68-1.58.09-.08.17-.17.24-.28.24-.62.48-1.24.74-1.86v-.05c.05-.03.08-.08.11-.13.74-1.76 1.48-3.51 2.22-5.27.05-.05.06-.11.04-.16 0 0 .01-.02.02-.02.34-.46.45-1.05.85-1.48.15.67.22 1.33.09 2.05-.12.66-.48 1.21-.62 1.84-.1.98-.16 1.97-.37 2.94-.12.18-.06.38-.05.57 0 0 .01 0 .02.02v.24c-.03.18-.05.36-.08.54-.03 0-.06 0-.09.03.01.42.02.84-.12 1.26-.06.19-.06.41.07.59.18.26.1.53.08.82-.04.57-.59.98-.46 1.59s-.04.04-.04.05c.46 1.09-.68 2.07-.23 3.17.01.03-.03.07-.04.11-.36.74-.51 1.54-.57 2.36-.02.28-.05.56-.07.84v.04c-.06.66-.12 1.31-.12 1.97 0 .62-.39 1.17-.26 1.79.07.55.2 1.1-.07 1.64-.1.21-.32.45-.07.71.12.36.04.72.02 1.08-.21.12-.28.31-.22.52.31 1.09-.15 2.08-.34 3.1-.13.7-.36 1.42-.03 2.13.04.05.08.1.13.14-.05.26-.42.4-.27.74-.03.04-.03.07-.02.09a.49.49 0 0 0-.06.27v.02c-.06.41-.04.82.03 1.23v.11c-.02.06-.03.12-.03.18 0 .09 0 .18.05.27.1.23.03.48.04.72-.03.13-.08.26-.19.38-.12.14-.09.38.06.54.29.13.38.37.38.65-.04.02-.08.04-.11.07-.28.27-.4.61-.43.99v.78c-.09.51-.09 1.02-.09 1.53 0 .25-.03.5-.04.75v.27c-.06.31-.08.62-.02.93 0 .07 0 .13-.01.2-.05.25.03.5-.03.74 0 .03.01.06.02.09-.06.16.02.31.13.46.07.09.17.16.06.3-.35.45-.1.85.13 1.25v.29c-.27.13-.36.36-.39.64-.06.55-.07 1.11-.06 1.66-.07.29-.07.59 0 .89 0 .47 0 .95-.02 1.42-.05.1-.09.19-.12.3-.02.16-.02.31.01.47.09.38.04.77.05 1.15v.14c-.15.57.01 1.16-.09 1.73.04.26.11.52.16.78.04.15.05.31.06.46 0 .12 0 .25-.02.37-.15.74-.01 1.46-.03 2.18 0 .28.05.54.43.63.41.11.26.5.04.57-.49.16-.39.51-.38.84.01.36.09.72.09 1.09.01 1.57.06 3.13.38 4.66 0 .05 0 .1.02.15.02.14.08.28.12.41 0 .02 0 .03.01.05.04.14.05.28 0 .43-.07.33.11.63.13.95.02.06.05.11.08.17l.03.06c0 .6.22 1.16.36 1.74.19.8.53 1.39 1.43 1.49.09 0 .2.08.24.16.25.45.5.51.78.02.08-.14.17.04.26-.01 0-.06-.02-.11-.03-.16l.03.16c.16.06.25.37.49.12.5-.31.99-.42 1.49 0 .11.09.27.02.38-.09.33-.26.68-.25 1.07-.13s.74.04.89-.4c.04-.13.07-.25.24-.15.34.21.79-.19 1.12.21.03.04.49-.03.68-.28.43-.58 1.3-.54 1.85.07-.18.56-.12.63.52.63l-.02.02v.03c.18-.06.4-.15.38-.34-.05-.48.28-.89.22-1.35-.04-.32.42-.61.03-.93-.03-.11-.02-.22.09-.28.35-.12.39-.51.63-.73.99-1 .48-2.17.4-3.3-.42-.55-.54-1.11-.17-1.77.14-.24.1-.63-.09-.92-.02-.57.29-1.19-.02-1.68-.34-.53-.37-.97-.09-1.49.32-.39.54-.84.11-1.23-.19-.18-.38-.23-.29-.54.08-.25-.09-.69.1-.76.64-.24.39-.74.51-1.16.23-.8.05-1.67.49-2.42.06-.1.04-.24.06-.36.23-1.33.24-2.67.49-4 .27-1.46.36-2.96.65-4.42.38-1.9.58-3.83.95-5.74.5-2.64.95-5.29 1.79-7.85.05-.16.06-.36.3-.46-.03.94.05 1.85-.12 2.75-.03 1.82-.05 3.65-.08 5.47 0 .26-.06.53.05.78-.03.2-.06.39-.08.59.12.25.07.52.08.78l.06 3.17c0 .15 0 .3.01.45.02.82.03 1.64.06 2.46.01.34.03.67.05 1.01-.01.1-.01.19.01.29.07 1.29.15 2.59.22 3.88.1.12.08.27.09.41.15 1.35.31 2.71.46 4.06.02.18-.02.38.17.49.56.33 1.24.43 1.7.98.24.29.65.07.98.1.57.05 1.02-.1 1.28-.63.17-.35.31-.28.65-.13.81.36 1.73.59 2.55.2.35-.16.61-.17.93-.17.12 0 .24-.01.37-.02l.05.02h.05c.12.21.2.44.47.09.22-.28.52-.49.78-.73l.05.02h.05c.26.37.54.57 1.01.27.18-.11.55-.27.47.3-.03.2.3.46.56.45.24 0 .4-.23.43-.51.03-.4.05-.8.26-1.15 0-.22 0-.43.1-.62l.03.02c.04-.05.08-.11.11-.16v-.06c.08-.15.05-.34.1-.5.18-.57.4-1.14.77-1.59.18-.21.32-.37.34-.66.01-.19.03-.38.04-.57v-.02c.15-2.07.36-4.14.72-6.19.31-1.76.1-1.66 1.83-.93.37.17.78-.04 1.15.1.57.16.99-.25 1.47-.42.05.01.1.03.15.05.37.24.72.16 1.07-.07.04-.02.07-.02.11-.03 1.02.6 1.83-.22 2.79-.59-.06.37-.1.66 0 .96.14.42.3.42.59.14.28-.26.58-.47.8-.82.3-.48 1.12-.37 1.42.12.13.21.2.56.54.49.29-.06.35-.34.44-.6.31-.96.66-1.9 1.12-2.8.01-.19.09-.35.22-.49.34-.38.57-.85.65-1.33.17-.93.44-1.82.76-2.7.06-.13.12-.27.15-.41l.06-.22c.5-1.33.87-2.71 1.31-4.06.12-.36.24-.72.37-1.08.15-.42.31-.85.46-1.27 0-.02.01-.04.02-.07h.1c.88-2.48 1.95-4.88 3.05-7.27 0-.09 0-.17.03-.25.11-.22.21-.45.32-.67.03-.06.05-.11.07-.17.03-.07.07-.13.1-.19.05-.06.11-.1.22-.1l-.06.42c-.19 1.14-.36 2.27-.53 3.41-.05.3-.09.6-.14.9-.4 2.47-.66 4.96-1.12 7.42-.06.3-.13.6-.14.91-.02.09-.03.19-.05.28-.02.06-.03.13-.03.19.01.17-.02.34-.02.51-.21 1.03-.37 2.05-.16 3.12.1.54.05 1.09-.37 1.54-.13.13-.22.29-.2.49-.12.15-.07.35-.14.52-.21.57.15 1.1.06 1.7-.07.46-.44.77-.41 1.23-.28.54-.12 1.17-.37 1.72-.11.23-.13.47-.12.72-.03.09-.08.18-.1.28-.15.56.12 1.13.07 1.65-.11 1.07-.15 2.19-.83 3.12a10 10 0 0 0-.34 2.1h-.01c-.13.59-.43 1.15-.49 1.77-.02.22-.11.48-.03.66.36.76 0 1.46-.11 2.19-.07.55-.58.94-.48 1.52h-.12v.12c-.25 1.42-.67 2.84-.31 4.3.1.39.3.76.2 1.2-.04.18.09.37.28.28.44-.22.73.05 1.06.24.04 0 .09-.02.13-.02l.23.03c.08.04.14.06.2.06.86.31 1.75.17 2.63.06.34.27.67 0 1-.02.66.28 1.32.19 1.59-.21.04 0 .07-.02.11-.04.49-.34.75-.17.84.38.01.08.02.16.04.24.03.09.06.22.18.2.16-.03.15-.14.09-.27-.04-.09-.03-.2-.05-.29s.09-.07.13-.11c.26-.07.41.09.58.24.19.16.53.09.45-.09-.31-.7.02-.64.5-.53.06.01.14-.07.21-.11.67-.4.79-.35.81.41.01.55.23.57.62.3.04-.05.08-.09.13-.14.22-.24.1-.55.15-.83h.12c.08-.23.13-.41-.04-.67-.31-.47.14-1.69.63-1.97.17-.1.26 0 .38.06.04.32.1.65.13.97.02.27.1.49.36.59.64.24 1.29.44 1.97.59.83.19 1.51-.28 2.31-.26.81.03 1.8.31 2.6-.29.17.25.5.33.61.69.04.15.53.4.6.24.24-.53.71-.28.99-.28.42 0 .69-.48 1.2-.2.4.22.95.34 1.23-.3.08-.17.24-.07.37-.01.56.23.93-.06 1.12-.52.2-.5.36-1.03.38-1.58.11-.02.19-.1.21-.2.29-1.13.9-2.12 1.23-3.24.49-1.68 1.04-3.34 1.29-5.08.47-3.28 1.3-6.46 2.5-9.55 1.38-3.55 2.94-7.03 4.49-10.5.29-.65.59-1.3.89-1.96.17.11.18.21.17.31-.17 2.08-.29 4.17-.4 6.26-.14 2.92-.23 5.85-.29 8.78-.02.93-.14 1.87 0 2.8 0 1.7-.27 3.42.41 5.06.04.11.05.24.05.36 0 .83-.05 1.67-.02 2.5.04 1.39-.17 1.55 1.36 1.9.12.03.22.1.34.14.84.28 1.01.49 1.06 1.37.02.26.06.47.34.59 1.05.46 2.07.65 3.25.33.57-.16 1.32-.27 2 .04.33.15.73.18.96-.25h.05l.04-.02c.04-.04.08-.07.12-.11.08-.07.17-.08.26-.12.27-.01.46.13.5.55.02.16.17.33.27.25.32-.25.81-.07 1.05-.47-.14-.73.58-.43.85-.66.25-.21.33.15.45.32.21.28.4.61.8.42.03-.02.07-.03.11-.06-.02-.02-.04 0-.06 0h.06c.15-.06.23-.2.21-.34v-.17c.02-.1.03-.21 0-.32.02-.85.31-1.63.6-2.42.04-.05.08-.09.12-.14a.3.3 0 0 0 .04-.08c.25-.07.58-.09.51-.43-.19-.82.18-1.51.32-2.26.15-.85.34-1.65.72-2.42.05-.11.06-.24.09-.35.57-2.13 1.24-4.22 1.95-6.31s.08.03.13 0c.08-.64.39-1.19.59-1.79 1.41-4.41 2.6-8.89 3.96-13.32.54-1.78 1.06-3.56 1.63-5.32.37-1.12.84-2.21.95-3.4.27-.58.69-1.14.58-1.81-.06-.4 0-.66.24-.94.39-.48.77-1.03.74-1.63-.04-.79.2-1.47.52-2.15.63-.69.88-1.58 1.17-2.42.58-1.7 1.13-3.42 1.76-5.1.08-.22.22-.44.13-.7.09-.32.18-.64.26-.96.19-.06.17-.24.24-.38.07-.58.2-1.16.3-1.74.03-.14 0-.31.21-.3.32.01.34-.23.4-.44.06-.24.03-.49.15-.71-.03-.29.23-.55.04-.85h-.05c.01 0 .01-.02.03-.03.3-.35.62-.69.33-1.2-.11-.19.02-.29.16-.39.18.03.33-.03.48-.12.02-.03.02-.07.03-.11.02-.33.28-.63.11-.98.08-.07.05-.19.13-.25h-.01c.34-.73.41-1.55.86-2.22.08-.44.37-.8.51-1.21l.12-.24c.29-.41.48-.87.63-1.35.03-.05.06-.09.09-.14.15-.06.18-.21.23-.34.23-.65.63-1.23.85-1.91.16-.49.66-.93.79-1.51.03-.06.02-.12 0-.17h-.04v-.01c-.02-.75.05-.91.61-1.47.04.03.08.03.12 0 .26-.42.32-.9.49-1.35 0-.8-.04-.84-.83-.86-.12 0-.24-.01-.36-.02-.02.02-.02.06-.02.08 0 0-.02-.01-.02-.02.02-.02.03-.04.05-.06-.49-.13-.49-.35-.14-.67.15-.14.35-.26.37-.51.07.04.17.06.19.12.13.39.52.63.78.63.33 0 .64-.35.74-.76.12-.29.25-.57.37-.86h.12c.24-.62.47-1.24.71-1.86.03-.25.16-.52-.08-.74.05-.53-.03-.91-.72-.87-.49.03-.62-.26-.41-.74.52-.5 1.23-.62 1.83-.97.01-.08.03-.15.05-.23.43-.41.67-.87.48-1.48Zm-4.93 13.77h.01Zm2.6-13.51Zm-5.44 5.64c.4-.45.33-1.21 1.01-1.47.2-.08.4-.22.26-.5.33-.15.65-.45.97.01q.32.65-.34.78s-.09.07-.13.11c-.21.4-.25.8 0 1.19.09.13.11.23.02.38-.34.61-.47-.09-.7-.1-.25-.04-.51-.27-.74.05.01.01.01.02.02.04H176.98c.08-.25-.45-.28-.26-.49Zm3.47-2.95Zm-4.38 6.3.02-.01v.03s-.01 0-.02-.01Zm-1.15 7.09Zm-.5.39Zm0-.01Zm.5-.37Zm-2.46 1.84h-.02v-.01s.01 0 .02.01Zm1.47.46s.02-.02.03-.02v.02h-.03Zm.98-5.29c-.24.04-.23-.08-.17-.22.04.06.1.13.17.22Zm-4.92 3.62s-.02-.03-.03-.05h.03v.05Zm-.44 2.43h-.03v-.01h.03Zm6.86-3.93h.01Zm-6.9 3.82Zm.76-3.92-.04-.04c.02.02.04.02.06.02l-.02.02Zm11.04-11.07c.2.2.38.42.66.51-.39-.04-.67.16-.91.44 0-.08-.03-.13-.13-.08h-.02c-.12-.23-.05-.37.2-.49.13-.06.27-.19.19-.38Zm-4.84-.81v-.05h.04c-.01.02-.03.03-.05.05Zm5.94 2.14v-.01Zm.85-1.82Zm-1.59-.99v-.03c0 .01.01.02.02.03h-.02Zm-.01-.09v-.01.01Zm-5.1-.14c-.02.18.04.35.18.49-.16.14-.35.21-.56.23-.13-.18-.23-.38-.42-.5.18-.19.18-.39.02-.59.17 0 .25-.07.25-.25.02.02.03.05.05.07.29.06.52.16.47.55Zm-10.37 17.55Zm-39.5-23.12h.02-.02Zm4.36-.72s0-.02.01-.02v.02h-.02Zm-23.11 82.92-.14-.03c.06-.03.1-.01.14.03Zm6.26 3.64c.06-.08.07-.14.11-.21a.4.4 0 0 0 .1.12c-.07.03-.13.06-.21.1Zm-5.49-12.89Zm5.54 16.27v-.02h.01s0 .01-.01.02Zm13.82-90.63.01-.01s-.01.01-.01.02Zm-21.64 82.5h-.04v-.02c.01 0 .03.02.05.02Zm20.66-83.02Zm-25.66 67.42s-.01.03-.02.04c0 0 .01-.03.02-.04ZM69.16 104.6v.01Zm-10.72 7.36s.04 0 .06.01c.07.04.13.08.13.14-.06-.06-.12-.11-.19-.16Zm-48.39-8.48-.01-.01h.03l-.01.01ZM85.12 9.25Zm-.24 2.21Zm-2.83 3.61s.08-.02.13.03c-.05-.03-.09-.03-.13-.03ZM63.16 67.99c-.03-.09 0-.15.04-.2 0 .07-.02.13-.04.2Zm-2.36 3.17s-.04.09-.07.14c.02-.05.04-.09.07-.14Zm-.12.25s0 .02.01.03h-.02v-.03Zm0 0Zm-1.23 1.97Zm-.81 35.55s-.01.03-.02.05c0-.02.01-.03.02-.05Zm5.36.7v-.01Zm-8.61-13.65-.02.02v-.02Zm18.5-68.48s.02.08.03.13l-.03-.13ZM51.21 7.54Zm.66 3.14Zm1.79-3.75Zm-9.28 72.6h.09v.01c-.03-.02-.05-.02-.08-.01Zm-5.4 4.61h-.06.06Zm6.22-12.85c.19-.09.33-.18.45-.31-.03.25-.22.31-.45.31Zm-3.7 21.85v.02l-.02-.02h.01Zm-8.23 19.29h.01-.01ZM.82 88.52l-.06.15c0-.06.02-.11.06-.15Zm.27 2.98s.01-.03.01-.04c0 .02 0 .03-.01.04Zm16.08-67.69s-.1.06-.14.08c.04-.05.09-.09.14-.08Zm25.1 68.99-.03-.02h.03v.01Zm2.51-12.17h.06-.06Zm1.97-6.51h.04-.04ZM54.4 3.74c-.03 0-.07.01-.1.03v-.02h.1ZM26.82 6.27v.04h-.04c.02-.01.04-.02.05-.04ZM39.3 110.32v.03-.04Zm15.56-59.24s.05-.03.08-.04c-.02.02-.05.03-.08.04Zm.61 27.07s.01.09.04.15a.336.336 0 0 1-.04-.15Zm-.02 8.91c.02.08.04.16.06.23a1.12 1.12 0 0 1-.06-.23ZM175.9 40.7Z"/></svg>