<svg xmlns="http://www.w3.org/2000/svg" xml:space="preserve"
    style="fill-rule:evenodd;clip-rule:evenodd;stroke-miterlimit:10" viewBox="0 0 234 1041" height="800"><path d="M34.174 11.777v1017.025" style="fill:none;fill-rule:nonzero;stroke:currentColor;stroke-width:2.34px"/><circle cx="34.176" cy="520.288" r="22.398" style="fill:none;stroke:currentColor;stroke-width:2.34px"/><path d="M34.174 1028.801h28.719l-28.719-37.013zM34.174 11.777h28.719L34.174 48.789z" style="fill:currentColor;fill-rule:nonzero"/><path d="M82.496 86.313v867.953" style="fill:none;fill-rule:nonzero;stroke:currentColor;stroke-width:2.34px"/><path d="m82.495 992.491 19.113-19.113-19.113-19.112-19.112 19.112zM82.495 86.313l19.112-19.112-19.112-19.113-19.112 19.113z" style="fill:none;stroke:currentColor;stroke-width:2.34px"/><path d="M128.655 520.29c0-25.494-20.666-46.159-46.159-46.159v92.319c25.494 0 46.159-20.669 46.159-46.159" style="fill:currentColor;fill-rule:nonzero"/><path d="M82.496 520.29 190.04 683.331 82.496 742.994z" style="fill:none;fill-rule:nonzero;stroke:currentColor;stroke-width:2.34px"/><path d="m82.496 520.29 64.744 313.931-64.744 7.322z" style="fill:none;fill-rule:nonzero;stroke:currentColor;stroke-width:2.34px"/><path d="m157.756 753.972 16.042-16.045-16.048-16.045-16.042 16.045zM165.866 602.591l12.345-12.345-12.345-12.345-12.345 12.345z" style="fill:currentColor"/><path d="M128.655 520.29c0 25.491-20.666 46.159-46.159 46.159V474.13c25.494 0 46.159 20.666 46.159 46.159" style="fill:currentColor;fill-rule:nonzero"/><path d="M82.496 412.465 221.293 520.29 82.496 628.115" style="fill:none;fill-rule:nonzero;stroke:currentColor;stroke-width:2.34px"/><path d="M82.496 520.29 190.04 357.249 82.496 297.583z" style="fill:none;fill-rule:nonzero;stroke:currentColor;stroke-width:2.34px"/><path d="m82.496 520.29 64.744-313.931-64.744-7.322z" style="fill:none;fill-rule:nonzero;stroke:currentColor;stroke-width:2.34px"/><path d="m173.798 302.654-16.045-16.045-16.045 16.045 16.045 16.045zM178.211 450.332l-12.345-12.345-12.345 12.345 12.345 12.345z" style="fill:currentColor"/><path d="M56.138 915.313V552.654M56.138 125.266v362.659" style="fill:none;fill-rule:nonzero;stroke:currentColor;stroke-width:2.34px"/></svg>